<?xml version="1.0" encoding="utf-8"?>
<!-- Generator: Adobe Illustrator 28.0.0, SVG Export Plug-In . SVG Version: 6.00 Build 0)  -->
<svg version="1.1" xmlns="http://www.w3.org/2000/svg" xmlns:xlink="http://www.w3.org/1999/xlink" x="0px" y="0px"
	 viewBox="0 0 84 78" style="enable-background:new 0 0 84 78;" xml:space="preserve">
<style type="text/css">
	.st0{fill:#FFFFFF;}
	.st1{clip-path:url(#SVGID_00000007387221375100929500000005499393594651567789_);}
	.st2{fill:#99B3FF;}
	.st3{fill:#3366FF;}
	.st4{fill:#DAFF86;}
</style>
<g id="bg">
	<g>
		<path class="st0" d="M0,65.4C0,72.4,5.6,78,12.6,78h58.8c7,0,12.6-5.6,12.6-12.6V12.6C84,5.6,78.4,0,71.4,0H12.6
			C5.6,0,0,5.6,0,12.6V65.4z"/>
	</g>
</g>
<g id="logo">
	<g>
		<defs>
			<rect id="SVGID_1_" x="7" y="6.5" width="70" height="64.9"/>
		</defs>
		<clipPath id="SVGID_00000126285846401280656100000004366743070002866573_">
			<use xlink:href="#SVGID_1_"  style="overflow:visible;"/>
		</clipPath>
		<g style="clip-path:url(#SVGID_00000126285846401280656100000004366743070002866573_);">
			<path class="st2" d="M58.9,39.2l-4.2,8.4c-2.1,4.2-6.4,6.9-11.1,6.9H15.5c-4.7,0-8.5,3.8-8.5,8.5s3.8,8.5,8.5,8.5h57.3
				c3.4,0,5.4-3.8,3.5-6.6L58.9,39.2L58.9,39.2z"/>
			<path class="st3" d="M68.5,6.5H19.8C12.7,6.5,7,12.2,7,19.3v43.6c0-4.7,3.8-8.5,8.5-8.5h28.1c4.7,0,9-2.7,11.1-6.9l17.6-34.9
				C73.7,9.8,71.7,6.5,68.5,6.5z"/>
			<path class="st4" d="M44.9,32.8c2.8,0,5.2-1.8,5.2-4s-2.3-4-5.2-4c-2.8,0-5.2,1.8-5.2,4S42.1,32.8,44.9,32.8z"/>
		</g>
	</g>
</g>
</svg>
