<svg xmlns="http://www.w3.org/2000/svg" viewBox="0 0 48 48" width="48px" height="48px">
  <circle cx="28" cy="28" r="18" fill="#3D27E6" />
  <path
    fill="#141312"
    d="M20.75,43.74c-0.82-0.141-1.37-0.91-1.24-1.73l0,0c0.14-0.81,0.91-1.37,1.72-1.229l0,0 c0.82,0.13,1.38,0.899,1.24,1.72l0,0c-0.12,0.729-0.75,1.26-1.48,1.26l0,0C20.91,43.76,20.83,43.75,20.75,43.74z M25.6,42.49 c-0.14-0.82,0.42-1.591,1.23-1.721l0,0c0.82-0.14,1.59,0.41,1.73,1.23l0,0c0.14,0.81-0.42,1.59-1.23,1.72l0,0l0,0l0,0 c-0.09,0.021-0.17,0.021-0.25,0.021l0,0C26.36,43.74,25.72,43.22,25.6,42.49z M14.52,41.609c-0.73-0.39-1-1.3-0.61-2.029l0,0 c0.39-0.73,1.3-1,2.03-0.61l0,0c0.73,0.4,1,1.311,0.61,2.04l0,0c-0.27,0.5-0.79,0.78-1.32,0.78l0,0 C14.99,41.79,14.74,41.729,14.52,41.609z M31.52,40.979c-0.4-0.729-0.13-1.64,0.6-2.04l0,0c0.72-0.39,1.63-0.13,2.03,0.601l0,0 c0.4,0.729,0.13,1.64-0.6,2.04l0,0c-0.23,0.12-0.47,0.18-0.72,0.18l0,0C32.3,41.76,31.79,41.479,31.52,40.979z M9.32,37.58 L9.32,37.58L9.32,37.58c-0.57-0.61-0.53-1.561,0.08-2.12l0,0c0.61-0.561,1.56-0.53,2.12,0.08l0,0c0.56,0.609,0.53,1.56-0.08,2.12 l0,0c-0.29,0.27-0.66,0.399-1.02,0.399l0,0C10.02,38.06,9.61,37.899,9.32,37.58z M36.61,37.609C36,37.05,35.96,36.1,36.52,35.5l0,0 c0.56-0.61,1.51-0.65,2.12-0.101l0,0c0.61,0.57,0.65,1.511,0.09,2.12l0,0c-0.29,0.33-0.7,0.49-1.1,0.49l0,0 C37.26,38.01,36.9,37.88,36.61,37.609z M5.7,32.08c0,0,0,0,0,0.01l0,0c-0.33-0.76,0.01-1.65,0.77-1.98l0,0 c0.75-0.34,1.64,0,1.98,0.761l0,0c0.33,0.76-0.01,1.649-0.77,1.979l0,0c-0.2,0.09-0.4,0.13-0.6,0.13l0,0 C6.5,32.979,5.95,32.64,5.7,32.08z M40.35,32.79c-0.76-0.34-1.1-1.221-0.77-1.98l0,0c0.33-0.76,1.22-1.1,1.98-0.77l0,0 c0.75,0.33,1.1,1.22,0.77,1.97l0,0c-0.25,0.57-0.8,0.9-1.38,0.9l0,0C40.75,32.91,40.55,32.87,40.35,32.79z M4.07,25.71 C4,24.88,4.61,24.16,5.44,24.09l0,0c0.83-0.07,1.55,0.54,1.62,1.37l0,0c0.07,0.82-0.54,1.55-1.37,1.62l0,0c-0.04,0-0.08,0-0.13,0 l0,0C4.79,27.08,4.14,26.49,4.07,25.71z M42.32,27c-0.83-0.061-1.44-0.79-1.38-1.61l0,0c0.07-0.83,0.79-1.439,1.62-1.38l0,0 c0.83,0.07,1.44,0.79,1.37,1.62l0,0c-0.06,0.78-0.72,1.38-1.49,1.38l0,0C42.4,27.01,42.36,27.01,42.32,27z M5.68,20.97 c-0.8-0.2-1.29-1.01-1.09-1.82l0,0l0,0l0,0c0.2-0.8,1.02-1.29,1.82-1.09l0,0c0.81,0.2,1.29,1.01,1.09,1.82l0,0 c-0.17,0.68-0.78,1.13-1.45,1.13l0,0C5.93,21.01,5.81,21,5.68,20.97z M40.48,19.81c-0.2-0.8,0.28-1.62,1.09-1.819l0,0 c0.8-0.21,1.62,0.279,1.82,1.09l0,0c0.2,0.8-0.28,1.609-1.09,1.819l0,0c-0.12,0.03-0.24,0.04-0.37,0.04l0,0 C41.26,20.939,40.65,20.49,40.48,19.81z M7.66,15.189c-0.69-0.449-0.89-1.38-0.44-2.069l0,0c0.45-0.7,1.38-0.9,2.07-0.45l0,0 c0.7,0.46,0.9,1.39,0.44,2.08l0,0c-0.28,0.439-0.76,0.68-1.26,0.68l0,0C8.19,15.43,7.91,15.35,7.66,15.189z M38.23,14.689 c-0.46-0.689-0.26-1.62,0.43-2.069l0,0c0.69-0.46,1.62-0.261,2.08,0.43l0,0c0.45,0.69,0.26,1.62-0.43,2.08l0,0 c-0.26,0.16-0.54,0.24-0.83,0.24l0,0C39,15.37,38.52,15.13,38.23,14.689z M11.41,10.37c-0.52-0.66-0.4-1.601,0.25-2.11l0,0 c0.65-0.51,1.59-0.4,2.1,0.25l0,0c0.52,0.66,0.4,1.6-0.25,2.11l0,0c-0.27,0.22-0.6,0.319-0.92,0.319l0,0 C12.14,10.939,11.7,10.74,11.41,10.37z M34.44,10.58L34.44,10.58c-0.66-0.511-0.77-1.45-0.26-2.11l0,0 c0.51-0.65,1.45-0.77,2.1-0.26l0,0l0,0l0,0c0.65,0.51,0.77,1.45,0.26,2.109l0,0c-0.29,0.381-0.74,0.58-1.18,0.58l0,0 C35.04,10.899,34.71,10.79,34.44,10.58z M16.51,7.01c-0.27-0.78,0.14-1.64,0.92-1.91l0,0c0.78-0.27,1.64,0.141,1.91,0.931l0,0 c0.27,0.779-0.14,1.63-0.92,1.909l0,0c-0.16,0.051-0.33,0.08-0.49,0.08l0,0C17.31,8.02,16.72,7.63,16.51,7.01z M29.52,7.91 c-0.78-0.261-1.2-1.12-0.93-1.9l0,0c0.27-0.78,1.12-1.2,1.9-0.93l0,0c0.79,0.27,1.2,1.12,0.93,1.899l0,0C31.21,7.6,30.63,8,30.01,8 l0,0C29.85,8,29.68,7.97,29.52,7.91z M23.96,7c-0.01,0-0.02,0-0.03,0l0,0c-0.83,0-1.5-0.67-1.5-1.49l0,0 C22.42,4.68,23.09,4,23.92,4l0,0c0.02,0,0.03,0,0.04,0l0,0c0.02,0,0.03,0,0.04,0l0,0l0,0l0,0h0.01l0,0 c0.82,0.01,1.49,0.68,1.49,1.5l0,0C25.5,6.33,24.83,7,24,7l0,0l0,0l0,0C23.99,7,23.97,7,23.96,7z"
  />
  <path
    fill="none"
    stroke="#141312"
    stroke-linecap="round"
    stroke-linejoin="round"
    stroke-miterlimit="10"
    stroke-width="3"
    d="M36.893,28.014C35.184,33.51,30.058,37.5,24,37.5c-1.959,0-3.821-0.417-5.501-1.168"
  />
  <path
    fill="none"
    stroke="#141312"
    stroke-linecap="round"
    stroke-linejoin="round"
    stroke-miterlimit="10"
    stroke-width="3"
    d="M12.402,30.913C11.194,28.891,10.5,26.526,10.5,24c0-7.456,6.044-13.5,13.5-13.5c5.689,0,10.557,3.519,12.544,8.5"
  />
  <path
    fill="none"
    stroke="#141312"
    stroke-linecap="round"
    stroke-linejoin="round"
    stroke-miterlimit="10"
    stroke-width="3"
    d="M25,25.5c0.828,0,1.5,0.672,1.5,1.5v0c0,0.828,0.672,1.5,1.5,1.5h1.5c1.105,0,2,0.895,2,2V35"
  />
  <path
    fill="none"
    stroke="#141312"
    stroke-linecap="round"
    stroke-linejoin="round"
    stroke-miterlimit="10"
    stroke-width="3"
    d="M27.5,11v2.5c0,1.105-0.895,2-2,2h0c-2.209,0-4,1.791-4,4v0h-1c-1.105,0-2,0.895-2,2v4"
  />
  <path
    fill="none"
    stroke="#141312"
    stroke-linecap="round"
    stroke-linejoin="round"
    stroke-miterlimit="10"
    stroke-width="3"
    d="M11.5,19l9,9v1.5c0,1.105,0.895,2,2,2h1v6"
  />
</svg>
